<svg xmlns="http://www.w3.org/2000/svg" width="1412.62" height="8" viewBox="0 0 1412.62 8">
  <g id="Group_279" data-name="Group 279" transform="translate(-918.961 -770.427)" opacity="0.2">
    <path id="Path_1347" data-name="Path 1347" d="M1234.2,783.437a1.566,1.566,0,0,0,.058-.393A.931.931,0,0,0,1234.2,783.437Z" transform="translate(1047.622 -8.89)" fill="#462121"/>
    <path id="Path_1348" data-name="Path 1348" d="M1205.837,780.655l.337-.178C1205.956,780.5,1205.871,780.564,1205.837,780.655Z" transform="translate(824.154 -7.023)" fill="#462121"/>
    <path id="Path_1349" data-name="Path 1349" d="M1251.247,783.771" transform="translate(1047.622 -9.261)" fill="#462121"/>
    <path id="Path_1350" data-name="Path 1350" d="M1145.037,774.307l.387.011C1145.25,774.3,1145.14,774.255,1145.037,774.307Z" transform="translate(649.573 -2.249)" fill="#462121"/>
    <path id="Path_1351" data-name="Path 1351" d="M1181.149,778.5a.811.811,0,0,1-.5.247C1180.879,778.791,1181.068,778.768,1181.149,778.5Z" transform="translate(752.128 -5.662)" fill="#462121"/>
    <path id="Path_1352" data-name="Path 1352" d="M1261.018,791.474l-.549-.522A.614.614,0,0,0,1261.018,791.474Z" transform="translate(1047.622 -14.535)" fill="#462121"/>
    <path id="Path_1353" data-name="Path 1353" d="M1278.268,786.946a.706.706,0,0,0-.066-.12C1278.184,786.882,1278.218,786.918,1278.268,786.946Z" transform="translate(1047.622 -11.434)" fill="#462121"/>
    <path id="Path_1354" data-name="Path 1354" d="M1271.15,785.672a3.222,3.222,0,0,0-.454.312C1270.9,785.94,1271.163,785.905,1271.15,785.672Z" transform="translate(1047.622 -10.708)" fill="#462121"/>
    <path id="Path_1355" data-name="Path 1355" d="M1270.483,786.156l.213-.172C1270.569,786.019,1270.467,786.056,1270.483,786.156Z" transform="translate(1047.622 -10.868)" fill="#462121"/>
    <path id="Path_1356" data-name="Path 1356" d="M921.511,781.521c-.505.025-.891.5-1.307.9Z" transform="translate(0 -7.973)" fill="#462121"/>
    <path id="Path_1357" data-name="Path 1357" d="M1089.237,771.713l.115-.232A.229.229,0,0,0,1089.237,771.713Z" transform="translate(488.878)" fill="#462121"/>
    <path id="Path_1358" data-name="Path 1358" d="M921.384,786.527l-.366-.083A.55.55,0,0,0,921.384,786.527Z" transform="translate(0 -11.154)" fill="#462121"/>
    <path id="Path_1359" data-name="Path 1359" d="M1251.765,793.758c-.477.593-1.572,0-1.529.543C1250.773,794.174,1251.572,794.541,1251.765,793.758Z" transform="translate(1047.622 -18.148)" fill="#462121"/>
    <path id="Path_1360" data-name="Path 1360" d="M1077.171,792.661l-.332.025A.947.947,0,0,0,1077.171,792.661Z" transform="translate(453.555 -15.882)" fill="#462121"/>
    <path id="Path_1361" data-name="Path 1361" d="M921.384,786.527" transform="translate(0 -11.174)" fill="#462121"/>
    <path id="Path_1362" data-name="Path 1362" d="M1031.051,771.478" transform="translate(321.721)" fill="#462121"/>
    <path id="Path_1363" data-name="Path 1363" d="M1027.945,770.639l.653-.2A.643.643,0,0,0,1027.945,770.639Z" transform="translate(313.367)" fill="#462121"/>
    <path id="Path_1364" data-name="Path 1364" d="M920.2,782.419l-.745.514A2.028,2.028,0,0,0,920.2,782.419Z" transform="translate(0 -8.49)" fill="#462121"/>
    <path id="Path_1365" data-name="Path 1365" d="M994.707,772.639a1.606,1.606,0,0,0,.3-.084A.47.47,0,0,0,994.707,772.639Z" transform="translate(217.586)" fill="#462121"/>
    <path id="Path_1366" data-name="Path 1366" d="M1183.443,778.97a1.85,1.85,0,0,0,.258.138C1183.738,778.98,1183.726,778.887,1183.443,778.97Z" transform="translate(759.686 -5.946)" fill="#462121"/>
    <path id="Path_1367" data-name="Path 1367" d="M1159.753,792.407" transform="translate(691.122 -15.634)" fill="#462121"/>
    <path id="Path_1368" data-name="Path 1368" d="M1161.013,791.793c-.372-.151-.942.216-1.26.614A1.474,1.474,0,0,0,1161.013,791.793Z" transform="translate(693.516 -15.343)" fill="#462121"/>
    <path id="Path_1369" data-name="Path 1369" d="M1157.163,791.95l.138.079A.3.3,0,0,0,1157.163,791.95Z" transform="translate(683.947 -15.233)" fill="#462121"/>
    <path id="Path_1370" data-name="Path 1370" d="M1181.6,794.62" transform="translate(753.839 -18.148)" fill="#462121"/>
    <path id="Path_1371" data-name="Path 1371" d="M1176.728,794.421a.872.872,0,0,0-.319-.27A.69.69,0,0,0,1176.728,794.421Z" transform="translate(739.575 -18.148)" fill="#462121"/>
    <path id="Path_1372" data-name="Path 1372" d="M1145.036,792.768" transform="translate(648.881 -16.019)" fill="#462121"/>
    <path id="Path_1373" data-name="Path 1373" d="M1617.615,777.918c27.242-.078,66.474-.627,77.864.016,1.831.034,61.308.45,62.6-.409a56.874,56.874,0,0,0-5.972-.047c1.335-.854,63.208-.339,57.089.051,7.017-.446-3.278-.06.836-.524,5.89.126,7.183-.337,4.214.2,8.635-.238,14.835-.039,21.685.089,5.492-.153,3.46-1.28,16.146-.8q-8.708.205-11.355.97c7.26-.2,6.544-.628,11.026-.779,6.134-.135,21.835.2,18.816.876-.078-.162,12.238-.153,11.282-.554.569.237,25.559,1.7,30.157,1.07q-5.933.03-11.506-.131c2.6-.1,22.1-.793,28.686-.666a23.687,23.687,0,0,1-5.465.213q4.685.181,9.97.147-2.259.122-4.9.187c12.122.074,22.134-.227,32.916-.773a18.51,18.51,0,0,0,3.17.9c8.007-.135,11.753-.366,15.868-.333.186.008,13.364-.251,10.507-.538.666.05,33.246.59,25.671.986a31.119,31.119,0,0,1,5.251-.452c-4.737.589,9.374.895,14.3.8,3.708-.383,13.387-.914,20.2-1.434q1.382.816,12.861.807c3.2-.744,2.214-.681,15.81.042a79.139,79.139,0,0,1,15.144-.3q-3.338-.289.956-.48c-.007.084,13.925.787,13.163.722.415-.517,63.487-.192,64.122-.122-8.553-.562,13.786-1.257,7.357-.773,11.483-.136-16-.456,9.2-.2-.619.009-2.388,1-5.31,1.228,13.832-.349-4.919-.122,12.849.209-3.928-1.134,15.868-1.558,14.421-.863a5.334,5.334,0,0,1-1.567-.353c-.251,0,8.921.4,9.265.435-1.525.517,3.8-1.52,4.068-.267q.07.344-2.988.588c-2.852.034,65.852-1.8,65.786-1.746,1.343-.165,4.617,1.044,4.048,1.007q5.26-.391,12.369-.525c.225-.074,2.98.672.515.449-2.7.007,21.212-.73,18.553-.524q-6.629.181-6.188-.366a60.954,60.954,0,0,0,10.48-.257c-7.875-.246-26.483-.4-29.715-.415l.012.488a13.577,13.577,0,0,0-3.77-.194q-.633-.376,3.994-.523c-6.707-.289-15.016.526-18.171.618q-1.114-.207,1.208-.364c-5.507-.118-12.206.465-6.428-.412-9.605.1-5.863.124-16.185-.156-6.649.263-16.762.318-27.854.63,5.17-.3-6.169-.366-1.158-.511q-4.685.026-7.442.32c-6.746-.276-18.124-.551-33.059-.522,1.049-.005-12.687.434-17.041.255-14.057.292-73.832-.486-78.055-.648,3.5-.021-12.957.194-10.542.057q6.537-.064-.313.322c-6.03-.454-20.76-.318-28.523-.527-5,.011-26.062-.154-31.895-.544l-2.515.373c-2.164-.12-11.251-.4-14.142-.679-9.377.568-32.157.152-41.488.15q-.987-.2,1.06-.348-4.139.27-9.238.415-1.7-.276,2.953-.269c-26.151.43-44.078-.24-58.552-.384-9.525-.471-30.586.473-33.926-.356-33.938.42-89.135-.578-126.66-.831-67.427-.454-141.022-.131-194.745-.7.677-.094,3.618.724-4.474.368q2.873-.279-1.014-.489c-9.2.511-38.227.184-55.507.472-17.47-.84-72.284.08-99.364-.512l6.986.211c-24.278.679-71.463.017-87.532.11-19.7.114-66.664.274-91.387.255-43.714-.034-289.948-1.341-298.137,3.229,6.065.131,1.575.983,1.4.9a32.709,32.709,0,0,1,3.58.081c.182-.023,9.374-.881,14.285-.714a52.349,52.349,0,0,0,5.767.526q-4.935-.083-4.981.211,2.5.026,2.473-.171c1.649-.026,40.931.366,50.139.563.72.128,42.22,1.615,43.1,1.517,10.879-.36,63.111.247,74.223.366q-6.694-.3,6.026-.459c2.8.554.167.157.484.1,44.685,1.35,128.363-.042,162.792-.078,32.3-.034,62.732.174,92.645.056,15.225-.061,98.822-1.024,111.326-.111-.658-.1-8.012-.048-5.117-.294.147-.012,48.374.355,47.553.5q4.168-.268,2.191-.667c9.029.043,15.554,1.037,34.108.514l-2.791-.208a111.992,111.992,0,0,1,14.23.3,61.637,61.637,0,0,1,8.217-.149,36.063,36.063,0,0,1-5.9.323c11.34.061,3.379-.5,15.113-.048C1591.2,776.586,1609.2,777.993,1617.615,777.918Z" transform="translate(0 0)" fill="#462121"/>
    <path id="Path_1374" data-name="Path 1374" d="M1182.227,794.792" transform="translate(755.627 -18.148)" fill="#462121"/>
    <path id="Path_1375" data-name="Path 1375" d="M1152.486,792.34a1.174,1.174,0,0,0-.239.222A.283.283,0,0,0,1152.486,792.34Z" transform="translate(670.017 -15.626)" fill="#462121"/>
    <path id="Path_1376" data-name="Path 1376" d="M1145.192,793.424c.525-.157.082-.418-.156-.656A.883.883,0,0,0,1145.192,793.424Z" transform="translate(649.586 -16.319)" fill="#462121"/>
    <path id="Path_1377" data-name="Path 1377" d="M1199.31,793.353a.388.388,0,0,0-.175.374A.43.43,0,0,0,1199.31,793.353Z" transform="translate(804.549 -18.148)" fill="#462121"/>
    <path id="Path_1378" data-name="Path 1378" d="M1246.515,794.065a1.9,1.9,0,0,1-.2-.124A.311.311,0,0,0,1246.515,794.065Z" transform="translate(1047.622 -18.148)" fill="#462121"/>
    <path id="Path_1379" data-name="Path 1379" d="M1243.827,792.813a1.319,1.319,0,0,0-.528.148A.623.623,0,0,0,1243.827,792.813Z" transform="translate(1047.622 -16.114)" fill="#462121"/>
    <path id="Path_1380" data-name="Path 1380" d="M1187.931,793.118a.743.743,0,0,0-.507.25A.6.6,0,0,0,1187.931,793.118Z" transform="translate(771.615 -16.411)" fill="#462121"/>
    <path id="Path_1381" data-name="Path 1381" d="M1242.763,793.179" transform="translate(1047.622 -16.434)" fill="#462121"/>
    <path id="Path_1382" data-name="Path 1382" d="M1247.354,794.135a4.268,4.268,0,0,1-.839-.07A.719.719,0,0,0,1247.354,794.135Z" transform="translate(1047.622 -18.148)" fill="#462121"/>
    <path id="Path_1383" data-name="Path 1383" d="M1216.593,792.761c-.021.012-.045.008-.071.019C1216,793.146,1216.327,792.993,1216.593,792.761Z" transform="translate(1047.622 -16.121)" fill="#462121"/>
    <path id="Path_1384" data-name="Path 1384" d="M1239.929,794.8" transform="translate(1047.622 -18.148)" fill="#462121"/>
    <path id="Path_1385" data-name="Path 1385" d="M1250.236,794.3" transform="translate(1047.622 -18.148)" fill="#462121"/>
    <path id="Path_1386" data-name="Path 1386" d="M1226.451,794.181a1.622,1.622,0,0,0,.261-.711C1226.493,793.481,1226.354,793.629,1226.451,794.181Z" transform="translate(1047.622 -18.148)" fill="#462121"/>
  </g>
</svg>
